<?xml version="1.0" standalone="no"?>
<!DOCTYPE svg PUBLIC "-//W3C//DTD SVG 20010904//EN"
 "http://www.w3.org/TR/2001/REC-SVG-20010904/DTD/svg10.dtd">
<svg version="1.0" xmlns="http://www.w3.org/2000/svg"
 width="591.000000pt" height="422.000000pt" viewBox="0 0 591.000000 422.000000"
 preserveAspectRatio="xMidYMid meet">

<g transform="translate(0.000000,422.000000) scale(0.100000,-0.100000)"
fill="#000000" stroke="none">
<path d="M2790 3667 c-198 -66 -340 -230 -369 -426 -17 -109 12 -246 82 -386
48 -98 453 -785 462 -785 2 0 19 26 38 58 18 31 121 203 227 382 106 179 203
348 216 377 66 148 83 331 40 447 -59 164 -187 285 -357 336 -94 28 -250 27
-339 -3z m350 -133 c91 -43 162 -111 202 -191 27 -55 33 -80 36 -152 7 -142
-28 -228 -232 -572 -93 -156 -172 -288 -176 -292 -4 -5 -59 78 -122 185 -247
415 -276 472 -298 603 -22 126 20 246 118 337 93 87 179 119 312 115 82 -2
104 -7 160 -33z"/>
<path d="M2863 3447 l-56 -53 32 -37 32 -36 -50 -17 c-27 -10 -56 -23 -65 -30
-22 -15 -44 -129 -52 -266 -9 -145 -4 -168 36 -168 35 0 37 5 44 140 2 52 10
109 18 125 12 27 13 17 16 -107 l3 -137 27 -5 c15 -3 44 -8 65 -12 l37 -6 -6
233 -6 234 -39 40 c-22 23 -39 46 -39 52 0 6 14 23 31 37 42 36 98 35 145 -1
18 -16 34 -32 34 -38 0 -5 -17 -27 -39 -50 l-39 -40 -5 -232 c-4 -128 -3 -233
2 -233 4 0 33 5 64 11 l57 12 0 135 c0 83 4 132 9 127 14 -15 31 -120 31 -191
0 -34 3 -69 6 -78 8 -21 60 -21 68 0 15 40 -9 324 -33 387 -7 19 -25 35 -55
47 -60 27 -71 42 -46 65 31 28 24 48 -30 99 -44 41 -54 46 -95 46 -43 0 -52
-5 -102 -53z"/>
<path d="M3208 889 c-5 -3 -8 -24 -6 -45 l3 -39 190 0 190 0 3 34 c2 18 -2 39
-8 45 -12 12 -353 16 -372 5z"/>
<path d="M3244 686 c-3 -8 -4 -27 -2 -43 l3 -28 150 0 150 0 0 40 0 40 -148 3
c-121 2 -148 0 -153 -12z"/>
<path d="M3207 504 c-14 -15 -7 -82 9 -88 24 -9 347 -7 362 3 8 5 12 23 10 47
l-3 39 -186 3 c-102 1 -188 -1 -192 -4z"/>
<path d="M500 195 c0 -36 4 -65 9 -65 12 0 24 37 16 49 -3 5 -1 12 5 16 5 3
24 -10 41 -29 17 -20 35 -36 40 -36 5 0 9 29 9 65 0 37 -4 65 -10 65 -5 0 -10
-18 -10 -40 0 -22 -4 -40 -8 -40 -4 0 -23 18 -41 40 -18 22 -37 40 -42 40 -5
0 -9 -29 -9 -65z"/>
<path d="M750 195 c0 -37 4 -65 10 -65 6 0 10 28 10 65 0 37 -4 65 -10 65 -6
0 -10 -28 -10 -65z"/>
<path d="M880 256 c0 -13 54 -126 60 -126 7 0 60 110 60 124 0 3 -5 6 -11 6
-6 0 -18 -18 -26 -40 -9 -22 -19 -40 -23 -40 -4 0 -13 18 -20 40 -7 22 -19 40
-27 40 -7 0 -13 -2 -13 -4z"/>
<path d="M1110 195 l0 -65 40 0 c22 0 40 5 40 10 0 6 -11 10 -25 10 -37 0 -35
37 3 43 l27 4 -27 2 c-38 2 -41 41 -3 41 14 0 25 5 25 10 0 6 -18 10 -40 10
l-40 0 0 -65z"/>
<path d="M1310 195 l0 -65 35 0 c19 0 35 5 35 10 0 6 -11 10 -25 10 -24 0 -25
3 -25 55 0 30 -4 55 -10 55 -6 0 -10 -28 -10 -65z"/>
<path d="M1792 237 c-26 -27 -28 -54 -6 -85 18 -26 84 -31 104 -7 11 13 7 14
-33 9 -39 -6 -46 -4 -57 15 -9 18 -8 27 5 47 15 23 21 25 58 19 41 -6 41 -5
17 9 -36 22 -63 19 -88 -7z"/>
<path d="M2027 253 c-4 -3 -7 -33 -7 -65 l0 -58 41 0 c24 0 38 4 34 10 -3 6
-15 10 -26 10 -16 0 -19 7 -19 55 0 51 -7 65 -23 48z"/>
<path d="M2238 197 c-28 -67 -28 -80 0 -54 24 22 58 22 71 0 5 -10 13 -15 17
-11 9 9 -37 120 -51 125 -6 1 -22 -25 -37 -60z m47 -7 c0 -7 -6 -15 -12 -17
-8 -3 -13 4 -13 17 0 13 5 20 13 18 6 -3 12 -11 12 -18z"/>
<path d="M2472 248 c-20 -20 -13 -42 19 -61 26 -14 29 -20 19 -32 -9 -11 -17
-12 -32 -4 -16 9 -19 8 -16 -3 6 -18 46 -23 64 -8 23 20 16 48 -16 65 -33 17
-32 35 1 35 11 0 17 5 14 10 -8 14 -38 13 -53 -2z"/>
<path d="M2667 253 c-2 -5 -4 -34 -6 -65 l-2 -58 40 0 c23 0 41 5 41 10 0 6
-12 10 -26 10 -34 0 -29 31 6 41 l25 7 -27 1 c-21 1 -28 6 -28 21 0 15 7 20
25 20 14 0 25 5 25 10 0 12 -67 14 -73 3z"/>
<path d="M2990 253 c0 -5 9 -21 20 -38 11 -16 20 -42 20 -57 0 -16 5 -28 10
-28 6 0 10 12 10 26 0 15 10 42 21 61 25 41 16 58 -12 23 l-20 -25 -16 23
c-15 21 -33 30 -33 15z"/>
<path d="M3383 250 c-29 -12 -40 -63 -19 -95 21 -32 77 -37 105 -10 12 11 6
13 -35 12 -47 -2 -49 -1 -52 26 -5 44 14 59 62 52 29 -5 38 -4 31 4 -15 15
-66 22 -92 11z"/>
<path d="M3637 249 c-39 -23 -41 -86 -3 -111 19 -13 74 -8 90 8 56 55 -19 143
-87 103z m67 -25 c30 -30 13 -74 -29 -74 -42 0 -59 44 -29 74 8 9 22 16 29 16
7 0 21 -7 29 -16z"/>
<path d="M3890 195 c0 -37 4 -65 10 -65 6 0 10 15 10 33 0 19 3 36 6 39 3 4
22 -11 41 -33 19 -21 39 -39 44 -39 5 0 9 29 9 65 0 37 -4 65 -10 65 -5 0 -10
-18 -10 -40 0 -22 -4 -40 -8 -40 -5 0 -23 18 -41 40 -17 22 -36 40 -41 40 -6
0 -10 -29 -10 -65z"/>
<path d="M4150 195 c0 -64 16 -91 22 -37 2 20 9 28 28 31 l25 4 -25 6 c-35 9
-40 41 -6 41 14 0 26 5 26 10 0 6 -16 10 -35 10 l-35 0 0 -65z"/>
<path d="M4330 195 c0 -37 4 -65 10 -65 6 0 10 28 10 65 0 37 -4 65 -10 65 -6
0 -10 -28 -10 -65z"/>
<path d="M4497 199 c-29 -67 -28 -82 1 -56 23 21 41 21 64 0 10 -9 21 -14 24
-11 7 8 -39 121 -52 125 -6 2 -23 -24 -37 -58z m46 -3 c6 -15 -1 -26 -15 -26
-4 0 -8 9 -8 20 0 23 15 27 23 6z"/>
<path d="M4730 195 c0 -37 4 -65 10 -65 6 0 10 16 10 35 0 19 4 35 8 35 4 0
23 -16 42 -35 19 -19 38 -35 42 -35 4 0 8 29 8 65 0 37 -4 65 -10 65 -5 0 -10
-18 -10 -40 0 -22 -4 -40 -10 -40 -5 0 -24 18 -41 40 -18 22 -36 40 -41 40 -4
0 -8 -29 -8 -65z"/>
<path d="M5227 199 c-29 -67 -28 -82 1 -56 23 21 41 21 64 0 10 -9 21 -14 24
-11 7 8 -41 121 -53 125 -5 2 -22 -24 -36 -58z m46 -4 c7 -16 -8 -29 -23 -20
-10 6 -2 35 10 35 4 0 10 -7 13 -15z"/>
<path d="M5008 243 c28 -6 28 -16 -3 -70 l-26 -43 51 0 c33 0 49 4 45 10 -4 6
-14 10 -23 9 -33 -3 -34 2 -8 45 14 25 26 47 26 50 0 3 -19 5 -42 5 -24 -1
-33 -4 -20 -6z"/>
<path d="M1500 136 c-6 -9 -10 -21 -8 -28 3 -8 9 -4 17 10 15 28 9 39 -9 18z"/>
</g>
</svg>
